<?xml version="1.0" encoding="utf-8"?>
<svg version="1.1" xmlns="http://www.w3.org/2000/svg" xmlns:xlink="http://www.w3.org/1999/xlink" x="0px" y="0px" width="1500px" height="1600px" viewBox="0 0 1500 1600" style="enable-background:new 0 0 1500 1600;" xml:space="preserve">
<g id="base_left_triangle_cutted_end_copia"><path d="M1456.1,943.9L1300,1100h100c55.2,0,100,44.8,100,100v300c0,55.2-44.8,100-100,100h-133.2c-44,0-83.6-18.9-111-49.2 L750,1100l-405.8,450.8c-27.4,30.2-67,49.2-111,49.2H100c-55.2,0-100-44.8-100-100v-300c0-55.2,44.8-100,100-100h100L43.9,943.9 C16.8,916.8,0,879.3,0,837.9V0l750,750L1500,0v837.9C1500,879.3,1483.2,916.8,1456.1,943.9z"/></g>
</svg>